# Blender v2.79 (sub 0) OBJ File: ''
# www.blender.org
mtllib PimballParttriangle.mtl
o Cube
v 1.696389 1.005007 0.266658
v 1.701356 1.279833 0.257202
v 2.288074 1.142420 -0.062355
v 1.697753 1.142420 0.285540
v 1.581477 1.142420 -1.209203
v 1.588096 1.142420 -1.232168
v 2.284292 1.279833 -0.063623
v 1.806626 1.279833 -1.198869
v 1.700229 1.279833 0.280708
v 1.584701 1.279833 -1.205853
v 1.823774 1.005007 -1.182432
v 1.588096 1.005007 -1.232169
v 2.273936 1.005007 -0.036782
v 1.675285 1.005007 0.278393
v 1.628540 1.005007 -0.462881
v 2.288074 1.005007 -0.062355
v 1.677992 1.279833 0.273541
v 2.053746 1.279833 -0.619794
v 1.675285 1.142420 0.278393
v 2.056712 1.142420 -0.620493
v 1.648807 1.279833 -0.469737
v 1.643286 1.005007 -0.468309
v 2.042788 1.005007 -0.615367
v 2.037242 1.279833 -0.614065
v 1.986437 1.005007 0.124048
v 1.808570 1.005007 -1.201636
v 2.270344 1.279833 -0.038218
v 1.699107 1.279833 -1.213759
v 1.808571 1.142420 -1.201635
v 2.273935 1.142420 -0.036782
v 2.261005 1.279833 -0.054043
v 2.268146 1.005007 -0.051274
v 1.811954 1.279833 -1.177901
v 1.815895 1.005007 -1.183302
v 1.589822 1.005007 -1.208282
v 1.595900 1.279833 -1.201626
v 1.823774 1.142420 -1.182431
v 1.821630 1.279833 -1.179752
v 1.581477 1.005007 -1.209203
v 2.056712 1.005007 -0.620493
v 1.631505 1.279833 -0.463645
v 1.628540 1.142420 -0.462881
v 1.704149 1.279833 -1.189739
v 1.703091 1.005007 -1.195766
v 1.591144 1.279833 -1.228710
v 1.697753 1.005007 0.285540
v 1.843448 1.005007 -0.541989
v 1.978202 1.344415 0.084732
v 1.698560 1.005007 -1.216871
v 1.985873 1.279833 0.120917
v 1.698560 1.142420 -1.216870
v 1.986437 1.142420 0.124048
v 1.981756 1.279833 0.101259
v 1.982855 1.005007 0.107365
v 1.843521 1.408996 -0.542453
v 1.663144 1.344415 -0.475064
v 2.023703 1.344415 -0.609035
v 1.708645 1.344415 -1.168831
v 1.974327 1.408996 0.063289
v 2.003537 1.408996 -0.603965
v 1.712617 1.408996 -1.147791
v 1.683407 1.408996 -0.480538
v 2.288074 1.039361 -0.062355
v 1.588096 1.039361 -1.232169
v 1.816214 1.142420 -1.196302
v 1.697753 1.039361 0.285540
v 2.287511 1.142420 -0.048792
v 1.581477 1.039361 -1.209203
v 1.681502 1.142420 0.289702
v 1.582372 1.142420 -1.226991
v 2.287128 1.245480 -0.062672
v 1.588858 1.245480 -1.231304
v 1.698372 1.245480 0.284332
v 1.582283 1.245480 -1.208365
v 2.276580 1.279833 -0.061862
v 1.593857 1.279833 -1.220210
v 1.701749 1.279833 0.272416
v 1.589113 1.279833 -1.203120
v 1.814132 1.279833 -1.193569
v 2.283767 1.279833 -0.050127
v 1.585556 1.279833 -1.223547
v 1.684148 1.279833 0.284803
v 2.283092 1.005007 -0.059585
v 1.588527 1.005007 -1.226197
v 1.697412 1.005007 0.280819
v 1.583563 1.005007 -1.208973
v 2.287511 1.005007 -0.048792
v 1.816213 1.005007 -1.196303
v 1.582372 1.005007 -1.226991
v 1.681502 1.005007 0.289702
v 2.056712 1.039361 -0.620493
v 1.675285 1.039361 0.278393
v 2.055970 1.245480 -0.620318
v 1.675961 1.245480 0.277180
v 2.048137 1.279833 -0.618012
v 1.685186 1.279833 0.267031
v 2.053231 1.005007 -0.619211
v 1.680561 1.005007 0.275459
v 1.662998 1.005007 0.083552
v 2.227262 1.005007 -0.209059
v 1.665773 1.279833 0.079775
v 2.223694 1.279833 -0.209810
v 1.662998 1.142420 0.083552
v 2.227261 1.142420 -0.209059
v 2.202190 1.279833 -0.201242
v 1.682431 1.005007 0.073475
v 1.808570 1.039361 -1.201636
v 2.273935 1.039361 -0.036782
v 1.808085 1.245480 -1.200943
v 2.273037 1.245480 -0.037141
v 1.806986 1.279833 -1.192243
v 2.266214 1.279833 -0.042893
v 1.810401 1.005007 -1.197052
v 2.272488 1.005007 -0.040405
v 1.979091 1.295979 0.088864
v 2.208911 1.005007 -0.199543
v 1.783754 1.005007 -1.186853
v 2.027088 1.295979 -0.610292
v 2.192020 1.005007 0.009043
v 1.777225 1.005007 -1.205976
v 2.189291 1.279833 0.007124
v 1.775991 1.279833 -1.203111
v 1.777225 1.142420 -1.205976
v 2.192019 1.142420 0.009043
v 2.181440 1.279833 -0.009793
v 2.186859 1.005007 -0.006074
v 1.628540 1.039361 -0.462881
v 1.629281 1.245480 -0.463072
v 1.637313 1.279833 -0.465550
v 1.632227 1.005007 -0.464238
v 1.823774 1.039361 -1.182431
v 1.823238 1.245480 -1.181761
v 1.818138 1.279833 -1.177950
v 1.821804 1.005007 -1.182649
v 1.985991 1.005007 -0.594460
v 1.781238 1.279833 -1.181274
v 1.871912 1.279833 -1.027841
v 1.876280 1.005007 -1.032152
v 1.604051 1.005007 -1.011345
v 1.707521 1.295979 -1.174058
v 1.885768 1.142420 -1.032877
v 1.883405 1.279833 -1.030725
v 1.594003 1.005007 -1.010577
v 1.885768 1.005007 -1.032877
v 1.597157 1.279833 -1.008321
v 1.594002 1.142420 -1.010577
v 1.698560 1.039361 -1.216871
v 1.986437 1.039361 0.124048
v 1.698696 1.245480 -1.216092
v 1.986295 1.245480 0.123265
v 1.700641 1.279833 -1.206198
v 1.984562 1.279833 0.114437
v 1.699692 1.005007 -1.211595
v 1.985541 1.005007 0.119877
v 1.946213 1.005007 -0.063315
v 1.687544 1.279833 0.066129
v 1.740445 1.005007 -1.021770
v 1.609981 1.279833 -1.006841
v 1.626950 1.279833 -1.198216
v 1.622311 1.005007 -1.204692
v 1.622111 1.279833 -1.224422
v 1.780558 1.005007 0.239218
v 1.700699 1.005007 -0.489443
v 1.659560 1.295979 -0.473732
v 1.619781 1.005007 -1.227781
v 1.782162 1.279833 0.234875
v 1.619781 1.142420 -1.227780
v 1.780558 1.142420 0.239218
v 1.781785 1.279833 0.212472
v 1.778558 1.005007 0.220967
v 1.977233 1.392851 0.079372
v 2.018662 1.392851 -0.607767
v 1.709638 1.392851 -1.163571
v 1.668210 1.392851 -0.476432
v 2.118428 1.344415 -0.159941
v 1.770587 1.344415 0.016015
v 1.645842 1.344415 -0.999636
v 1.838838 1.344415 -1.024635
v 1.603435 -1.172056 -1.210928
v 1.939688 1.408996 -0.098868
v 1.953450 1.408996 -0.586052
v 1.747329 1.408996 -0.985937
v 1.733567 1.408996 -0.498753
v 2.099557 1.408996 -0.168717
v 1.783670 1.408996 -0.007474
v 1.827485 1.408996 -1.008355
v 1.663177 1.408996 -0.984458
v 1.816160 1.005008 -1.192961
v 2.282468 1.005008 -0.049413
v 1.685386 1.005008 0.283703
v 1.584273 1.005008 -1.222110
v 1.812980 1.279833 -1.188726
v 2.276733 1.279833 -0.051516
v 1.689418 1.279833 0.276172
v 1.589151 1.279833 -1.216813
v 1.815693 1.245480 -1.195619
v 2.286575 1.245480 -0.049126
v 1.583168 1.245480 -1.226130
v 1.682164 1.245480 0.288477
v 1.816213 1.039361 -1.196303
v 2.287511 1.039361 -0.048792
v 1.582372 1.039361 -1.226991
v 1.681502 1.039361 0.289702
v 2.227262 1.039361 -0.209059
v 1.662998 1.039361 0.083552
v 2.226369 1.245480 -0.209246
v 1.663692 1.245480 0.082608
v 2.216535 1.279833 -0.208043
v 1.672603 1.279833 0.074475
v 2.222674 1.005007 -0.206680
v 1.667856 1.005007 0.081033
v 1.777225 1.039361 -1.205976
v 2.192019 1.039361 0.009043
v 1.776917 1.245480 -1.205260
v 2.191337 1.245480 0.008563
v 1.776686 1.279833 -1.196219
v 2.185964 1.279833 0.001935
v 1.778857 1.005007 -1.201196
v 2.190730 1.005007 0.005264
v 2.164403 1.290166 -0.122231
v 2.134062 1.005007 -0.160728
v 1.594002 1.039361 -1.010577
v 1.594791 1.245480 -1.010013
v 1.601941 1.279833 -1.006823
v 1.596515 1.005007 -1.010769
v 1.885768 1.039361 -1.032877
v 1.885178 1.245480 -1.032338
v 1.879350 1.279833 -1.028928
v 1.883396 1.005007 -1.032696
v 1.837577 1.005007 -1.029194
v 1.829429 1.290166 -1.076648
v 1.619781 1.039361 -1.227781
v 1.780558 1.039361 0.239218
v 1.620363 1.245480 -1.226941
v 1.780959 1.245480 0.238132
v 1.624486 1.279833 -1.216191
v 1.782870 1.279833 0.227102
v 1.620413 1.005007 -1.222008
v 1.780058 1.005007 0.234655
v 1.758093 1.005007 0.034239
v 1.749840 1.290166 0.096502
v 1.643173 1.005007 -1.014335
v 1.629466 1.290166 -1.067127
v 1.603435 -1.204346 -1.210928
v 2.016599 1.408996 -0.259047
v 1.839265 1.408996 -0.891908
v 1.814049 1.408996 -0.162298
v 1.704083 1.408996 -0.856201
v 1.603435 -1.139765 -1.210928
v 1.773858 1.392851 0.010143
v 2.113710 1.392851 -0.162135
v 1.836000 1.392851 -1.020565
v 1.650175 1.392851 -0.995841
vn 0.0000 -1.0000 0.0000
vn -0.0678 0.9967 0.0436
vn 0.0000 1.0000 0.0000
vn 0.9238 0.0000 -0.3829
vn 0.9238 0.0073 -0.3829
vn 0.9991 0.0092 0.0411
vn 0.9991 0.0000 0.0415
vn 0.4882 -0.0000 0.8727
vn 0.4882 0.0073 0.8727
vn 0.2479 0.0099 0.9687
vn 0.2481 0.0000 0.9687
vn -0.9980 -0.0000 0.0629
vn -0.9980 0.0073 0.0629
vn -0.9987 0.0082 -0.0500
vn -0.9987 -0.0000 -0.0503
vn 0.1372 0.0073 -0.9905
vn 0.1372 0.0000 -0.9905
vn -0.6708 -0.0000 -0.7416
vn -0.6718 0.0113 -0.7407
vn 0.9958 0.0829 0.0397
vn 0.9218 0.0655 -0.3821
vn 0.5734 0.0742 -0.8159
vn 0.1369 0.0655 -0.9884
vn 0.2463 0.0887 0.9651
vn 0.4872 0.0655 0.8709
vn -0.9961 0.0733 -0.0489
vn -0.9959 0.0655 0.0628
vn 0.8780 0.0000 -0.4786
vn -0.6709 0.0000 -0.7416
vn 0.6626 0.0000 0.7490
vn -0.8763 0.0000 0.4818
vn -0.8724 0.1019 0.4780
vn -0.8764 0.0114 0.4815
vn -0.6171 0.7862 0.0336
vn -0.3552 0.9337 0.0463
vn 0.5981 0.7609 -0.2517
vn 0.3341 0.9365 -0.1061
vn 0.5722 0.0000 -0.8201
vn 0.6614 0.0755 0.7462
vn 0.5728 0.0083 -0.8197
vn 0.6627 0.0084 0.7488
vn 0.0989 0.9950 0.0107
vn 0.2347 0.9621 -0.1387
vn -0.2215 0.9750 -0.0196
vn 0.8781 0.0076 -0.4784
vn 0.8765 0.0686 -0.4764
vn -0.1443 0.9748 -0.1701
vn 0.1785 0.9421 -0.2839
vn -0.6723 0.1010 -0.7334
vn -0.1142 0.6449 0.7557
vn 0.6985 0.5194 0.4923
vn 0.8656 0.0892 0.4927
vn -0.3160 0.1167 0.9415
vn 0.1650 0.9698 0.1797
vn 0.0398 0.9807 0.1916
vn -0.9854 0.1652 0.0409
vn -0.9185 0.3555 0.1731
vn -0.9722 0.0995 0.2119
vn -0.9948 0.0957 0.0337
vn 0.9072 0.3571 -0.2224
vn 0.9065 0.1513 -0.3942
vn 0.9098 0.0962 -0.4037
vn 0.9737 0.0961 -0.2065
vn 0.6610 0.3125 -0.6822
vn -0.8102 0.4244 -0.4044
vn -0.9368 0.0833 -0.3399
vn 0.7435 0.0781 -0.6642
vn -0.2303 0.7258 0.6482
vn 0.6828 0.6256 0.3774
vn 0.7381 0.6554 -0.1601
vn 0.6909 0.6562 -0.3033
vn 0.6249 0.5698 -0.5337
vn -0.7662 0.5912 -0.2520
vn -0.7561 0.6539 0.0283
vn -0.7273 0.6683 0.1561
usemtl Material
s off
f 1//1 106//1 240//1 170//1
f 1//1 170//1 239//1 85//1
f 1//1 85//1 190//1 98//1
f 1//1 98//1 211//1 106//1
f 2//2 169//2 241//2 156//2
f 2//3 156//3 209//3 96//3
f 2//3 96//3 194//3 77//3
f 2//3 77//3 237//3 169//3
f 3//4 63//4 204//4 104//4
f 3//5 104//5 206//5 71//5
f 3//6 71//6 197//6 67//6
f 3//7 67//7 201//7 63//7
f 4//8 66//8 233//8 168//8
f 4//9 168//9 235//9 73//9
f 4//10 73//10 199//10 69//10
f 4//11 69//11 203//11 66//11
f 5//12 68//12 222//12 146//12
f 5//13 146//13 223//13 74//13
f 5//14 74//14 198//14 70//14
f 5//15 70//15 202//15 68//15
f 6//16 72//16 234//16 167//16
f 6//17 167//17 232//17 64//17
f 6//18 64//18 202//18 70//18
f 6//19 70//19 198//19 72//19
f 7//3 102//3 208//3 75//3
f 7//3 75//3 193//3 80//3
f 7//20 80//20 197//20 71//20
f 7//21 71//21 206//21 102//21
f 8//3 122//3 216//3 111//3
f 8//3 111//3 192//3 79//3
f 8//22 79//22 196//22 109//22
f 8//23 109//23 214//23 122//23
f 9//3 166//3 237//3 77//3
f 9//3 77//3 194//3 82//3
f 9//24 82//24 199//24 73//24
f 9//25 73//25 235//25 166//25
f 10//3 145//3 224//3 78//3
f 10//3 78//3 195//3 81//3
f 10//26 81//26 198//26 74//26
f 10//27 74//27 223//27 145//27
f 11//1 144//1 229//1 134//1
f 11//1 134//1 188//1 88//1
f 11//28 88//28 200//28 131//28
f 11//4 131//4 226//4 144//4
f 12//1 165//1 238//1 84//1
f 12//1 84//1 191//1 89//1
f 12//29 89//29 202//29 64//29
f 12//17 64//17 232//17 165//17
f 13//1 119//1 219//1 114//1
f 13//1 114//1 189//1 87//1
f 13//30 87//30 201//30 108//30
f 13//8 108//8 213//8 119//8
f 14//1 99//1 211//1 98//1
f 14//1 98//1 190//1 90//1
f 14//31 90//31 203//31 92//31
f 14//12 92//12 205//12 99//12
f 15//1 143//1 225//1 130//1
f 15//1 130//1 211//1 99//1
f 15//12 99//12 205//12 127//12
f 15//12 127//12 222//12 143//12
f 16//1 87//1 189//1 83//1
f 16//1 83//1 210//1 100//1
f 16//4 100//4 204//4 63//4
f 16//7 63//7 201//7 87//7
f 17//3 82//3 194//3 96//3
f 17//3 96//3 209//3 101//3
f 17//27 101//27 207//27 94//27
f 17//32 94//32 199//32 82//32
f 18//3 142//3 228//3 95//3
f 18//3 95//3 208//3 102//3
f 18//21 102//21 206//21 93//21
f 18//21 93//21 227//21 142//21
f 19//31 92//31 203//31 69//31
f 19//33 69//33 199//33 94//33
f 19//13 94//13 207//13 103//13
f 19//12 103//12 205//12 92//12
f 20//4 91//4 226//4 141//4
f 20//5 141//5 227//5 93//5
f 20//5 93//5 206//5 104//5
f 20//4 104//4 204//4 91//4
f 21//34 164//34 243//34 158//34
f 21//3 158//3 224//3 129//3
f 21//3 129//3 209//3 156//3
f 21//35 156//35 241//35 164//35
f 22//1 139//1 242//1 163//1
f 22//1 163//1 240//1 106//1
f 22//1 106//1 211//1 130//1
f 22//1 130//1 225//1 139//1
f 23//1 138//1 229//1 97//1
f 23//1 97//1 210//1 116//1
f 23//1 116//1 221//1 135//1
f 23//1 135//1 230//1 138//1
f 24//3 95//3 228//3 137//3
f 24//36 137//36 231//36 118//36
f 24//37 118//37 220//37 105//37
f 24//3 105//3 208//3 95//3
f 25//1 162//1 239//1 154//1
f 25//1 154//1 219//1 119//1
f 25//8 119//8 213//8 148//8
f 25//8 148//8 233//8 162//8
f 26//1 88//1 188//1 113//1
f 26//1 113//1 218//1 120//1
f 26//17 120//17 212//17 107//17
f 26//38 107//38 200//38 88//38
f 27//3 80//3 193//3 112//3
f 27//3 112//3 217//3 121//3
f 27//25 121//25 215//25 110//25
f 27//39 110//39 197//39 80//39
f 28//3 161//3 236//3 151//3
f 28//3 151//3 216//3 122//3
f 28//23 122//23 214//23 149//23
f 28//23 149//23 234//23 161//23
f 29//40 109//40 196//40 65//40
f 29//38 65//38 200//38 107//38
f 29//17 107//17 212//17 123//17
f 29//16 123//16 214//16 109//16
f 30//30 108//30 201//30 67//30
f 30//41 67//41 197//41 110//41
f 30//9 110//9 215//9 124//9
f 30//8 124//8 213//8 108//8
f 31//3 75//3 208//3 105//3
f 31//42 105//42 220//42 125//42
f 31//3 125//3 217//3 112//3
f 31//3 112//3 193//3 75//3
f 32//1 116//1 210//1 83//1
f 32//1 83//1 189//1 114//1
f 32//1 114//1 219//1 126//1
f 32//1 126//1 221//1 116//1
f 33//3 133//3 192//3 111//3
f 33//3 111//3 216//3 136//3
f 33//43 136//43 231//43 137//43
f 33//3 137//3 228//3 133//3
f 34//1 113//1 188//1 134//1
f 34//1 134//1 229//1 138//1
f 34//1 138//1 230//1 117//1
f 34//1 117//1 218//1 113//1
f 35//1 84//1 238//1 160//1
f 35//1 160//1 242//1 139//1
f 35//1 139//1 225//1 86//1
f 35//1 86//1 191//1 84//1
f 36//3 159//3 236//3 76//3
f 36//3 76//3 195//3 78//3
f 36//3 78//3 224//3 158//3
f 36//44 158//44 243//44 159//44
f 37//28 131//28 200//28 65//28
f 37//45 65//45 196//45 132//45
f 37//5 132//5 227//5 141//5
f 37//4 141//4 226//4 131//4
f 38//3 79//3 192//3 133//3
f 38//3 133//3 228//3 142//3
f 38//21 142//21 227//21 132//21
f 38//46 132//46 196//46 79//46
f 39//1 89//1 191//1 86//1
f 39//1 86//1 225//1 143//1
f 39//12 143//12 222//12 68//12
f 39//15 68//15 202//15 89//15
f 40//1 100//1 210//1 97//1
f 40//1 97//1 229//1 144//1
f 40//4 144//4 226//4 91//4
f 40//4 91//4 204//4 100//4
f 41//3 101//3 209//3 129//3
f 41//3 129//3 224//3 145//3
f 41//27 145//27 223//27 128//27
f 41//27 128//27 207//27 101//27
f 42//12 127//12 205//12 103//12
f 42//13 103//13 207//13 128//13
f 42//13 128//13 223//13 146//13
f 42//12 146//12 222//12 127//12
f 43//3 136//3 216//3 151//3
f 43//3 151//3 236//3 159//3
f 43//47 159//47 243//47 140//47
f 43//48 140//48 231//48 136//48
f 44//1 153//1 218//1 117//1
f 44//1 117//1 230//1 157//1
f 44//1 157//1 242//1 160//1
f 44//1 160//1 238//1 153//1
f 45//3 81//3 195//3 76//3
f 45//3 76//3 236//3 161//3
f 45//23 161//23 234//23 72//23
f 45//49 72//49 198//49 81//49
f 46//1 90//1 190//1 85//1
f 46//1 85//1 239//1 162//1
f 46//8 162//8 233//8 66//8
f 46//11 66//11 203//11 90//11
f 47//1 157//1 230//1 135//1
f 47//1 135//1 221//1 155//1
f 47//1 155//1 240//1 163//1
f 47//1 163//1 242//1 157//1
f 48//50 176//50 241//50 115//50
f 48//51 115//51 220//51 175//51
f 48//52 175//52 251//52 171//52
f 48//53 171//53 250//53 176//53
f 49//1 120//1 218//1 153//1
f 49//1 153//1 238//1 165//1
f 49//17 165//17 232//17 147//17
f 49//17 147//17 212//17 120//17
f 50//3 121//3 217//3 152//3
f 50//3 152//3 237//3 166//3
f 50//25 166//25 235//25 150//25
f 50//25 150//25 215//25 121//25
f 51//16 149//16 214//16 123//16
f 51//17 123//17 212//17 147//17
f 51//17 147//17 232//17 167//17
f 51//16 167//16 234//16 149//16
f 52//8 148//8 213//8 124//8
f 52//9 124//9 215//9 150//9
f 52//9 150//9 235//9 168//9
f 52//8 168//8 233//8 148//8
f 53//54 125//54 220//54 115//54
f 53//55 115//55 241//55 169//55
f 53//3 169//3 237//3 152//3
f 53//3 152//3 217//3 125//3
f 54//1 155//1 221//1 126//1
f 54//1 126//1 219//1 154//1
f 54//1 154//1 239//1 170//1
f 54//1 170//1 240//1 155//1
f 55//3 181//3 246//3 182//3
f 55//3 182//3 248//3 183//3
f 55//3 183//3 247//3 180//3
f 55//3 180//3 245//3 181//3
f 56//56 177//56 243//56 164//56
f 56//57 164//57 241//57 176//57
f 56//58 176//58 250//58 174//58
f 56//59 174//59 253//59 177//59
f 57//60 175//60 220//60 118//60
f 57//61 118//61 231//61 178//61
f 57//62 178//62 252//62 172//62
f 57//63 172//63 251//63 175//63
f 58//64 178//64 231//64 140//64
f 58//65 140//65 243//65 177//65
f 58//66 177//66 253//66 173//66
f 58//67 173//67 252//67 178//67
f 59//3 184//3 245//3 180//3
f 59//3 180//3 247//3 185//3
f 59//68 185//68 250//68 171//68
f 59//69 171//69 251//69 184//69
f 60//3 186//3 246//3 181//3
f 60//3 181//3 245//3 184//3
f 60//70 184//70 251//70 172//70
f 60//71 172//71 252//71 186//71
f 61//3 187//3 248//3 182//3
f 61//3 182//3 246//3 186//3
f 61//72 186//72 252//72 173//72
f 61//73 173//73 253//73 187//73
f 62//3 185//3 247//3 183//3
f 62//3 183//3 248//3 187//3
f 62//74 187//74 253//74 174//74
f 62//75 174//75 250//75 185//75
l 244 179
l 179 249
