# Blender v2.79 (sub 0) OBJ File: 'PinballTable.blend'
# www.blender.org
mtllib PinballTable.mtl
o Cube_Cube.001
v -2.265667 -1.952720 -3.282229
v -2.265667 2.897051 -3.282229
v -2.265667 -1.952720 -3.364168
v -2.265667 2.897051 -3.364168
v 0.529618 -1.952720 -3.282229
v 0.529618 2.897051 -3.282229
v 0.529618 -1.952720 -3.364168
v 0.529618 2.897051 -3.364168
v -2.165835 -1.952720 -3.364168
v -2.165836 2.897051 -3.364168
v -2.165836 -1.952720 -3.282229
v -2.165835 2.897051 -3.282229
v 0.430195 2.897051 -3.364168
v 0.430195 -1.952720 -3.282229
v 0.430195 -1.952720 -3.364168
v 0.430195 2.897051 -3.282229
v -2.265667 2.808471 -3.282229
v -2.265667 2.808471 -3.364168
v 0.529618 2.808471 -3.364168
v 0.529618 2.808471 -3.282229
v -2.165835 2.808471 -3.282229
v -2.165836 2.808471 -3.364168
v 0.430195 2.808471 -3.282229
v 0.430195 2.808471 -3.364168
v -2.265667 -1.830922 -3.364168
v 0.529618 -1.830922 -3.364168
v 0.529618 -1.830922 -3.282229
v -2.165836 -1.830922 -3.282229
v -2.165835 -1.830922 -3.364168
v 0.430195 -1.830922 -3.282229
v 0.430195 -1.830922 -3.364168
v -2.265667 -1.830922 -3.282229
v -2.250940 2.897051 -3.470005
v -2.250940 2.897051 -3.551944
v 0.544345 2.897051 -3.470005
v 0.544345 2.897051 -3.551944
v -2.151108 2.897051 -3.551944
v 0.444923 2.897051 -3.551944
v -2.250940 2.808471 -3.470005
v -2.250940 2.808471 -3.551944
v 0.544345 2.808471 -3.551944
v -2.151108 2.808471 -3.551944
v 0.444923 2.808471 -3.470005
v 0.444923 2.808471 -3.551944
v -2.265667 -1.952720 -3.547406
v -2.265667 2.897051 -3.547406
v -2.165835 -1.952720 -3.547406
v -2.165836 2.897051 -3.547406
v -2.265667 2.808471 -3.547406
v -2.165836 2.808471 -3.547406
v -2.265667 -1.830922 -3.547406
v -2.165835 -1.830922 -3.547406
v 0.529618 -1.952720 -3.533110
v 0.529618 2.897051 -3.533110
v 0.430195 2.897051 -3.533110
v 0.430195 -1.952720 -3.533110
v 0.529618 2.808471 -3.533110
v 0.430195 2.808471 -3.533110
v 0.529618 -1.830922 -3.533110
v 0.430195 -1.830922 -3.533110
v -2.265667 -0.200507 -3.282229
v -2.265667 -0.200507 -3.364168
v 0.529618 -0.200507 -3.364168
v 0.529618 -0.200507 -3.282229
v -2.165835 -0.200507 -3.282229
v -2.165835 -0.200507 -3.364168
v 0.430195 -0.200507 -3.282229
v 0.430195 -0.200507 -3.364168
v -2.265667 -0.200507 -3.547406
v -2.165835 -0.200507 -3.547406
v 0.529618 -0.200507 -3.533110
v 0.430195 -0.200507 -3.533110
v -2.265667 -1.256267 -3.364168
v 0.529618 -1.256267 -3.364168
v 0.529618 -1.256267 -3.282229
v -2.165835 -1.256267 -3.282229
v -2.165835 -1.256267 -3.364168
v 0.430195 -1.256267 -3.282229
v 0.430195 -1.256267 -3.364168
v -2.265667 -1.256267 -3.547406
v -2.165835 -1.256267 -3.547406
v 0.529618 -1.256267 -3.533110
v 0.430195 -1.256267 -3.533110
v -2.265667 -1.256267 -3.282229
v 0.529618 -1.250952 -3.364168
v 0.430195 -1.250952 -3.364168
v 0.529618 -1.250952 -3.533110
v 0.430195 -1.250952 -3.533110
v -0.025249 -1.952720 -3.364168
v -0.025249 2.897051 -3.282229
v -0.025249 2.897051 -3.364168
v -0.025249 -1.952720 -3.282229
v -0.025249 2.808471 -3.364168
v -0.025249 2.808471 -3.282229
v -0.025249 -1.830922 -3.282229
v -0.025249 -1.830922 -3.364168
v -0.010521 2.897051 -3.551944
v -0.010521 2.808471 -3.551944
v -0.025249 -0.200507 -3.282229
v -0.025249 -0.200507 -3.364168
v -0.025249 -1.256267 -3.364168
v -0.025249 -1.256267 -3.282229
v -0.104952 -1.952720 -3.364168
v -0.104952 2.897051 -3.282229
v -0.104952 2.808471 -3.282229
v -0.104952 -1.830922 -3.282229
v -0.104952 -0.200507 -3.282229
v -0.104952 -1.256267 -3.282229
v -0.104952 2.897051 -3.364168
v -0.104952 -1.952720 -3.282229
v -0.104952 2.808471 -3.364168
v -0.104952 -1.830922 -3.364168
v -0.090224 2.897051 -3.551944
v -0.090224 2.808471 -3.551944
v -0.104952 -0.200507 -3.364168
v -0.104952 -1.256267 -3.364168
v -2.265667 2.576160 -3.282229
v -2.265667 2.576160 -3.364168
v 0.529618 2.576160 -3.364168
v 0.529618 2.576160 -3.282229
v -2.165835 2.576160 -3.282229
v -2.165836 2.576160 -3.364168
v 0.430195 2.576160 -3.282229
v 0.430195 2.576160 -3.364168
v -2.265667 2.576160 -3.547406
v -2.165836 2.576160 -3.547406
v 0.529618 2.576160 -3.533110
v 0.430195 2.576160 -3.533110
v -0.025249 2.576160 -3.282229
v -0.025249 2.576160 -3.364168
v -0.104952 2.576160 -3.364168
v -0.104952 2.576160 -3.282229
v -2.265667 2.363372 -3.364168
v 0.529618 2.363372 -3.364168
v 0.529618 2.363372 -3.282229
v -2.165835 2.363372 -3.282229
v -2.165836 2.363372 -3.364168
v 0.430195 2.363372 -3.282229
v 0.430195 2.363372 -3.364168
v -2.265667 2.363372 -3.547406
v -2.165836 2.363372 -3.547406
v 0.529618 2.363372 -3.533110
v 0.430195 2.363372 -3.533110
v -0.025249 2.363372 -3.282229
v -0.025249 2.363372 -3.364168
v -0.104952 2.363372 -3.364168
v -0.104952 2.363372 -3.282229
v -2.265667 2.363372 -3.282229
v -0.025249 -1.952720 -3.548262
v -0.025249 -1.830922 -3.548262
v -0.025249 -0.200507 -3.548262
v -0.025249 -1.256267 -3.548262
v -0.104952 -1.952720 -3.548262
v -0.104952 -1.830922 -3.548262
v -0.104952 -0.200507 -3.548262
v -0.104952 -1.256267 -3.548262
v -0.025249 2.363372 -3.548262
v -0.104952 2.363372 -3.548262
v 0.070938 2.064433 -2.404952
v 0.005170 2.808938 -3.382831
v -0.028785 2.811416 -3.548306
v 0.470456 2.465834 -3.607411
v 0.406879 2.482350 -3.763059
v -0.009082 2.615716 -3.205040
v 0.022146 2.684724 -3.167393
v 0.428206 2.291180 -3.417295
v 0.483447 2.344093 -3.390316
vn 0.0000 1.0000 0.0000
vn 0.0000 -1.0000 0.0000
vn 1.0000 0.0000 0.0000
vn 0.0000 0.0000 1.0000
vn -0.9969 0.0000 -0.0782
vn 0.0000 0.0000 -1.0000
vn -1.0000 0.0000 0.0000
vn 0.9969 0.0000 0.0782
vn -0.7106 -0.7004 0.0670
vn 0.5554 0.8229 -0.1200
usemtl pimball
s off
f 8//1 6//1 35//1 36//1
f 19//2 24//2 44//2 41//2
f 19//3 8//3 6//3 20//3
f 21//4 12//4 2//4 17//4
f 15//2 7//2 5//2 14//2
f 10//1 4//1 2//1 12//1
f 109//1 10//1 12//1 104//1
f 3//2 9//2 11//2 1//2
f 105//4 104//4 12//4 21//4
f 17//5 2//5 33//5 39//5
f 20//4 6//4 16//4 23//4
f 8//1 13//1 16//1 6//1
f 89//2 15//2 14//2 92//2
f 22//2 18//2 40//2 42//2
f 130//6 93//6 24//6 124//6
f 120//4 20//4 23//4 123//4
f 3//7 25//7 51//7 45//7
f 132//4 105//4 21//4 121//4
f 121//4 21//4 17//4 117//4
f 119//3 19//3 20//3 120//3
f 15//7 31//7 60//7 56//7
f 117//7 17//7 18//7 118//7
f 1//7 32//7 25//7 3//7
f 8//2 13//2 55//2 54//2
f 7//3 26//3 27//3 5//3
f 11//4 28//4 32//4 1//4
f 110//4 106//4 28//4 11//4
f 18//1 22//1 50//1 49//1
f 5//4 27//4 30//4 14//4
f 89//6 96//6 31//6 15//6
f 39//7 33//7 34//7 40//7
f 44//6 38//6 36//6 41//6
f 40//6 34//6 37//6 42//6
f 98//6 97//6 38//6 44//6
f 13//1 8//1 36//1 38//1
f 2//2 4//2 34//2 33//2
f 111//2 22//2 42//2 114//2
f 18//1 17//1 39//1 40//1
f 4//1 10//1 37//1 34//1
f 8//8 19//8 41//8 36//8
f 91//1 13//1 38//1 97//1
f 125//6 49//6 50//6 126//6
f 45//6 51//6 52//6 47//6
f 29//3 9//3 47//3 52//3
f 77//3 29//3 52//3 81//3
f 9//2 3//2 45//2 47//2
f 10//2 4//2 46//2 48//2
f 118//7 18//7 49//7 125//7
f 128//6 58//6 57//6 127//6
f 56//6 60//6 59//6 53//6
f 74//3 26//3 59//3 82//3
f 19//7 8//7 54//7 57//7
f 124//7 24//7 58//7 128//7
f 26//3 7//3 53//3 59//3
f 7//2 15//2 56//2 53//2
f 24//1 19//1 57//1 58//1
f 134//3 63//3 71//3 142//3
f 73//7 62//7 69//7 80//7
f 137//3 66//3 70//3 141//3
f 80//6 69//6 70//6 81//6
f 84//7 61//7 62//7 73//7
f 74//3 63//3 64//3 75//3
f 76//4 65//4 61//4 84//4
f 108//4 107//4 65//4 76//4
f 75//4 64//4 67//4 78//4
f 101//6 100//6 68//6 79//6
f 96//6 101//6 79//6 31//6
f 27//4 75//4 78//4 30//4
f 106//4 108//4 76//4 28//4
f 28//4 76//4 84//4 32//4
f 26//3 74//3 75//3 27//3
f 32//7 84//7 73//7 25//7
f 51//6 80//6 81//6 52//6
f 25//7 73//7 80//7 51//7
f 60//6 83//6 82//6 59//6
f 31//7 79//7 83//7 60//7
f 66//3 77//3 81//3 70//3
f 72//6 71//6 87//6 88//6
f 71//3 63//3 85//3 87//3
f 68//7 72//7 88//7 86//7
f 30//4 78//4 102//4 95//4
f 145//3 100//3 151//3 157//3
f 103//7 112//7 154//7 153//7
f 78//4 67//4 99//4 102//4
f 109//1 91//1 97//1 113//1
f 24//2 93//2 98//2 44//2
f 114//6 113//6 97//6 98//6
f 116//7 115//7 155//7 156//7
f 14//4 30//4 95//4 92//4
f 123//4 23//4 94//4 129//4
f 131//6 111//6 93//6 130//6
f 103//2 89//2 92//2 110//2
f 23//4 16//4 90//4 94//4
f 13//1 91//1 90//1 16//1
f 9//2 103//2 110//2 11//2
f 122//6 22//6 111//6 131//6
f 9//6 29//6 112//6 103//6
f 42//6 37//6 113//6 114//6
f 10//1 109//1 113//1 37//1
f 77//6 66//6 115//6 116//6
f 29//6 77//6 116//6 112//6
f 95//4 102//4 108//4 106//4
f 102//4 99//4 107//4 108//4
f 93//2 111//2 114//2 98//2
f 92//4 95//4 106//4 110//4
f 129//4 94//4 105//4 132//4
f 94//4 90//4 104//4 105//4
f 91//1 109//1 104//1 90//1
f 144//4 129//4 132//4 147//4
f 137//6 122//6 131//6 146//6
f 146//6 131//6 130//6 145//6
f 138//4 123//4 129//4 144//4
f 22//3 122//3 126//3 50//3
f 19//3 119//3 127//3 57//3
f 139//7 124//7 128//7 143//7
f 143//6 128//6 127//6 142//6
f 133//7 118//7 125//7 140//7
f 140//6 125//6 126//6 141//6
f 148//7 117//7 118//7 133//7
f 134//3 119//3 120//3 135//3
f 136//4 121//4 117//4 148//4
f 147//4 132//4 121//4 136//4
f 135//4 120//4 123//4 138//4
f 145//6 130//6 124//6 139//6
f 100//6 145//6 139//6 68//6
f 64//4 135//4 138//4 67//4
f 107//4 147//4 136//4 65//4
f 65//4 136//4 148//4 61//4
f 63//3 134//3 135//3 64//3
f 61//7 148//7 133//7 62//7
f 69//6 140//6 141//6 70//6
f 62//7 133//7 140//7 69//7
f 72//6 143//6 142//6 71//6
f 68//7 139//7 143//7 72//7
f 67//4 138//4 144//4 99//4
f 146//1 145//1 157//1 158//1
f 66//6 137//6 146//6 115//6
f 99//4 144//4 147//4 107//4
f 122//3 137//3 141//3 126//3
f 119//3 134//3 142//3 127//3
f 154//6 156//6 152//6 150//6
f 156//6 155//6 151//6 152//6
f 153//6 154//6 150//6 149//6
f 155//6 158//6 157//6 151//6
f 112//7 116//7 156//7 154//7
f 96//3 89//3 149//3 150//3
f 89//2 103//2 153//2 149//2
f 101//3 96//3 150//3 152//3
f 115//7 146//7 158//7 155//7
f 100//3 101//3 152//3 151//3
f 143//9 139//9 160//9 161//9
f 161//10 160//10 162//10 163//10
l 23 43
l 164 165
l 165 166
l 166 167
